<?xml version="1.0" encoding="UTF-8" standalone="no"?>
<svg
   xmlns:dc="http://purl.org/dc/elements/1.1/"
   xmlns:cc="http://creativecommons.org/ns#"
   xmlns:rdf="http://www.w3.org/1999/02/22-rdf-syntax-ns#"
   xmlns:svg="http://www.w3.org/2000/svg"
   xmlns="http://www.w3.org/2000/svg"
   id="svg8"
   version="1.1"
   viewBox="0 0 267.22916 267.22917"
   height="1010"
   width="1010">
  <defs
     id="defs2" />
  <metadata
     id="metadata5">
    <rdf:RDF>
      <cc:Work
         rdf:about="">
        <dc:format>image/svg+xml</dc:format>
        <dc:type
           rdf:resource="http://purl.org/dc/dcmitype/StillImage" />
        <dc:title></dc:title>
      </cc:Work>
    </rdf:RDF>
  </metadata>
  <path
     d="m 142.3704,190.87013 c 0,-2.40786 -0.85733,-4.46912 -2.57201,-6.1838 -1.71469,-1.71468 -3.77595,-2.57203 -6.1838,-2.57203 -2.40785,0 -4.46911,0.85735 -6.1838,2.57203 -1.71469,1.71468 -2.57201,3.77594 -2.57201,6.1838 0,2.40785 0.85732,4.46911 2.57201,6.18379 1.71469,1.71467 3.77595,2.57202 6.1838,2.57202 2.40785,0 4.4691,-0.85734 6.18379,-2.57202 1.71469,-1.71468 2.57202,-3.77594 2.57202,-6.18379 z m 25.20177,-16.29332 V 84.530214 c 0,-0.948549 -0.34659,-1.769406 -1.03975,-2.462573 -0.69317,-0.693171 -1.51404,-1.039756 -2.46258,-1.039756 h -60.91051 c -0.94855,0 -1.76941,0.346585 -2.46258,1.039756 -0.69316,0.693167 -1.039746,1.514024 -1.039746,2.462573 v 90.046596 c 0,0.94855 0.346586,1.7694 1.039746,2.46257 0.69317,0.69318 1.51403,1.03976 2.46258,1.03976 h 60.91051 c 0.94854,0 1.76941,-0.34658 2.46258,-1.03976 0.69316,-0.69317 1.03975,-1.51402 1.03975,-2.46257 z M 144.12157,72.830811 c 0,-1.167441 -0.58372,-1.751163 -1.75117,-1.751163 h -17.51162 c -1.16744,0 -1.75117,0.583722 -1.75117,1.751163 0,1.167443 0.58373,1.751163 1.75117,1.751163 h 17.51162 c 1.16745,0 1.75117,-0.58372 1.75117,-1.751163 z m 31.52093,4.746544 V 189.65181 c 0,3.79418 -1.38634,7.07762 -4.15901,9.85029 -2.77268,2.77267 -6.0561,4.15902 -9.85029,4.15902 h -56.03723 c -3.79419,0 -7.077624,-1.38635 -9.850298,-4.15902 -2.772676,-2.77267 -4.15901,-6.0561 -4.15901,-9.85029 V 77.577355 c 0,-3.794185 1.386334,-7.077617 4.15901,-9.850293 2.772674,-2.772674 6.056108,-4.159012 9.850298,-4.159012 h 56.03723 c 3.79419,0 7.07761,1.386338 9.85029,4.159012 2.77267,2.772676 4.15901,6.056108 4.15901,9.850293 z"
     id="path4485" />
</svg>
