<svg width="1792" height="1792" viewBox="0 0 1792 1792" xmlns="http://www.w3.org/2000/svg"><path d="m 989.44632,1494.0565 q 0,-38.5466 -27.44984,-65.9965 -27.44987,-27.4499 -65.99648,-27.4499 -38.54661,0 -65.99647,27.4499 -27.44986,27.4499 -27.44986,65.9965 0,38.5466 27.44986,65.9964 27.44986,27.4499 65.99647,27.4499 38.54661,0 65.99647,-27.4499 27.44985,-27.4498 27.44985,-65.9964 z m 242.96048,-186.8927 0,-822.32764 q 0,-15.18503 -11.0967,-26.28178 -11.0968,-11.09675 -26.2818,-11.09675 l -598.05655,0 q -15.18503,0 -26.28178,11.09675 -11.09675,11.09675 -11.09675,26.28178 l 0,822.32764 q 0,15.185 11.09675,26.2818 11.09675,11.0968 26.28178,11.0968 l 598.05655,0 q 15.185,0 26.2818,-11.0968 11.0967,-11.0968 11.0967,-26.2818 z M 1008.1356,316.63277 q 0,-18.68927 -18.68928,-18.68927 l -186.89265,0 q -18.68926,0 -18.68926,18.68927 0,18.68926 18.68926,18.68926 l 186.89265,0 q 18.68928,0 18.68928,-18.68926 z m 336.4068,-18.68927 0,1196.113 q 0,60.7401 -44.387,105.1271 -44.387,44.387 -105.1271,44.387 l -598.05655,0 q -60.74011,0 -105.12712,-44.387 -44.38701,-44.387 -44.38701,-105.1271 l 0,-1196.113 q 0,-60.74011 44.38701,-105.12712 44.38701,-44.387 105.12712,-44.387 l 598.05655,0 q 60.7401,0 105.1271,44.387 44.387,44.38701 44.387,105.12712 z"/></svg>
