<?xml version="1.0" encoding="UTF-8" standalone="no"?>
<svg
   xmlns:dc="http://purl.org/dc/elements/1.1/"
   xmlns:cc="http://creativecommons.org/ns#"
   xmlns:rdf="http://www.w3.org/1999/02/22-rdf-syntax-ns#"
   xmlns:svg="http://www.w3.org/2000/svg"
   xmlns="http://www.w3.org/2000/svg"
   xmlns:sodipodi="http://sodipodi.sourceforge.net/DTD/sodipodi-0.dtd"
   xmlns:inkscape="http://www.inkscape.org/namespaces/inkscape"
   id="svg8"
   version="1.1"
   height="512"
   width="512"
   sodipodi:docname="cabasi2.svg"
   inkscape:version="0.92.1 r15371"
   inkscape:export-filename="C:\Dev\cabasi\images\manifest\icon-32x32.png"
   inkscape:export-xdpi="6"
   inkscape:export-ydpi="6">
  <sodipodi:namedview
     pagecolor="#ffffff"
     bordercolor="#666666"
     borderopacity="1"
     objecttolerance="10"
     gridtolerance="10"
     guidetolerance="10"
     inkscape:pageopacity="0"
     inkscape:pageshadow="2"
     inkscape:window-width="1920"
     inkscape:window-height="1017"
     id="namedview11"
     showgrid="false"
     inkscape:zoom="0.96216216"
     inkscape:cx="-137.82303"
     inkscape:cy="160.3339"
     inkscape:window-x="-8"
     inkscape:window-y="-8"
     inkscape:window-maximized="1"
     inkscape:current-layer="svg8" />
  <metadata
     id="metadata14">
    <rdf:RDF>
      <cc:Work
         rdf:about="">
        <dc:format>image/svg+xml</dc:format>
        <dc:type
           rdf:resource="http://purl.org/dc/dcmitype/StillImage" />
        <dc:title></dc:title>
      </cc:Work>
    </rdf:RDF>
  </metadata>
  <defs
     id="" />
  <path
     style="fill:none;stroke:#4d4d4d;stroke-width:3.51205063;stroke-miterlimit:4;stroke-dasharray:none;stroke-opacity:1"
     d="m 93.653412,292.21992 q 0,0.92168 -1.489761,2.61186 -15.289674,17.36103 -37.871345,17.36103 -23.522568,0 -37.636106,-16.82328 -13.1726472,-15.671 -13.1726472,-39.17745 0,-23.5065 13.4078632,-39.33118 14.270366,-17.05371 37.714523,-17.05371 23.757804,0 36.773628,15.74776 1.254534,1.61328 1.254534,2.68865 0,1.30595 -4.155655,7.7587 -4.155657,6.37595 -5.01815,6.37595 -1.019314,0 -4.782915,-3.76409 -4.626112,-4.60912 -8.703359,-6.9137 -6.74314,-3.76408 -14.897624,-3.76408 -15.524905,0 -24.149849,11.59959 -7.684032,10.3705 -7.684032,26.11836 0,15.74774 7.605625,26.34877 8.624946,11.90696 24.07143,11.90696 7.68405,0 14.819223,-3.76419 4.704517,-2.45818 9.565843,-6.99048 4.077246,-3.76409 4.469291,-3.76409 0.470476,0 5.174963,6.14547 4.70452,6.06867 4.70452,6.68315 z"
     id="c"
     inkscape:export-filename="C:\Dev\cabasi\images\manifest\icon-512x512.png"
     inkscape:export-xdpi="135.77901"
     inkscape:export-ydpi="135.77901"
     inkscape:connector-curvature="0" />
  <path
     style="fill:none;stroke:#4d4d4d;stroke-width:3.51205063;stroke-miterlimit:4;stroke-dasharray:none;stroke-opacity:1"
     d="m 205.73062,309.92715 q 0,0.92164 -1.88183,0.92164 -1.48973,0 -4.39088,-0.23025 -2.82269,-0.23025 -4.31246,-0.23025 -1.48976,0 -4.46927,0.23025 -2.97954,0.23025 -4.46929,0.23025 -2.19546,0 -5.64541,-11.59968 -3.3716,-11.67645 -6.89998,-11.83002 -2.90109,-0.15349 -15.13285,-0.15349 h -12.38854 q -12.93744,0 -14.74084,0.15349 -2.82271,0.23026 -6.03745,11.83002 -3.13635,11.59968 -4.86133,11.59968 h -17.64193 q -1.56818,0 -1.56818,-1.07553 0,-0.76835 1.09772,-3.45681 l 19.2101,-51.4685 q 2.43067,-6.22231 14.74082,-35.87436 2.19546,-4.91631 5.95906,-14.82594 0.94092,-2.91917 2.03863,-2.91917 1.48976,0 4.39086,0.38377 2.90113,0.3848 4.3909,0.3848 1.41135,0 4.23405,-0.3848 2.90111,-0.46104 4.23405,-0.46104 0.70565,0 1.96023,2.84232 1.88181,4.30188 18.58285,46.32166 23.60097,59.07358 23.60097,59.61133 z m -36.5384,-42.40397 q 0,-2.22766 -7.05677,-19.97288 -6.82153,-17.20737 -9.64426,-22.58458 -16.23058,40.5602 -16.23058,42.48072 0,2.6118 5.95906,3.07273 0.31357,0.0742 7.68405,0.0742 h 8.07607 q 11.21243,0 11.21243,-3.07281 z"
     id="ca"
     inkscape:export-filename="C:\Dev\cabasi\images\manifest\icon-512x512.png"
     inkscape:export-xdpi="135.77901"
     inkscape:export-ydpi="135.77901"
     inkscape:connector-curvature="0" />
  <path
     style="fill:none;stroke:#4d4d4d;stroke-width:3.51205063;stroke-miterlimit:4;stroke-dasharray:none;stroke-opacity:1"
     d="m 298.04887,276.70173 q 0,13.36643 -8.23291,22.96877 -8.70333,10.06328 -22.11123,10.06328 -5.01815,0 -15.13285,-0.23028 -10.03628,-0.23025 -15.05444,-0.23025 -3.68519,0 -11.13401,0.30754 -7.37041,0.30753 -11.0556,0.30753 -1.96023,0 -1.96023,-1.76686 0,-8.45008 0.78406,-25.35018 0.8625,-16.97695 0.8625,-25.42693 0,-8.91106 -0.8625,-26.73296 -0.78406,-17.89869 -0.78406,-26.80972 0,-1.68998 1.96023,-1.68998 6.97837,0 21.01348,0.0742 14.03513,0.0742 21.0919,0.0742 16.4658,0 26.26687,5.99179 11.91812,7.29776 11.91812,22.66154 0,5.30041 -3.13634,11.06186 -3.13636,5.68459 -7.60565,8.60367 -2.27384,1.45961 -2.27384,1.92047 0,0.46107 2.27384,1.69006 5.95906,3.22639 9.56586,9.52548 3.6068,6.22237 3.6068,12.98234 z m -22.03282,-44.09388 q 0,-10.83143 -9.87948,-14.59565 -5.95905,-2.22765 -19.52372,-2.22765 -13.17266,0 -13.17266,1.92045 0,2.53499 -0.23518,7.60507 -0.23518,5.07 -0.23518,7.68186 0,1.76683 0.0787,5.45404 0.0787,3.6874 0.0787,5.53105 0,2.22768 17.72033,2.22768 25.16917,0 25.16917,-13.59685 z m 2.11702,43.32574 q 0,-9.37194 -8.54652,-12.67515 -5.41018,-2.1509 -16.85785,-2.1509 -19.75896,0 -19.75896,2.0741 v 12.59827 q 0,2.76546 0.15685,8.4501 0.15684,5.68457 0.15684,8.52681 0,0.76835 5.01815,1.15223 5.01815,0.38377 14.89765,0.38377 12.38853,0 17.79872,-3.1495 7.13519,-4.14826 7.13519,-15.21005 z"
     id="cab"
     inkscape:export-filename="C:\Dev\cabasi\images\manifest\icon-512x512.png"
     inkscape:export-xdpi="135.77901"
     inkscape:export-ydpi="135.77901"
     inkscape:connector-curvature="0" />
  <path
     style="fill:none;stroke:#4d4d4d;stroke-width:3.51205063;stroke-miterlimit:4;stroke-dasharray:none;stroke-opacity:1"
     d="m 410.12604,309.92715 q 0,0.92164 -1.88181,0.92164 -1.48976,0 -4.39088,-0.23025 -2.82272,-0.23025 -4.31246,-0.23025 -1.48977,0 -4.4693,0.23025 -2.97952,0.23025 -4.46929,0.23025 -2.19544,0 -5.64542,-11.59968 -3.37158,-11.67645 -6.89995,-11.83002 -2.90112,-0.15349 -15.13285,-0.15349 h -12.38857 q -12.93741,0 -14.74079,0.15349 -2.82272,0.23026 -6.03748,11.83002 -3.13635,11.59968 -4.86133,11.59968 H 307.254 q -1.56817,0 -1.56817,-1.07553 0,-0.76835 1.09771,-3.45681 l 19.21009,-51.4685 q 2.43066,-6.22231 14.74082,-35.87436 2.19544,-4.91631 5.95904,-14.82594 0.94093,-2.91917 2.03863,-2.91917 1.48977,0 4.39088,0.38377 2.90112,0.3848 4.39089,0.3848 1.41134,0 4.23407,-0.3848 2.90111,-0.46104 4.23405,-0.46104 0.70564,0 1.96023,2.84232 1.88178,4.30188 18.58282,46.32166 23.60098,59.07358 23.60098,59.61133 z m -36.53839,-42.40397 q 0,-2.22766 -7.05678,-19.97288 -6.82154,-17.20737 -9.64425,-22.58458 -16.23059,40.5602 -16.23059,42.48072 0,2.6118 5.95907,3.07273 0.31355,0.0742 7.68404,0.0742 h 8.07609 q 11.21242,0 11.21242,-3.07281 z"
     id="caba"
     inkscape:export-filename="C:\Dev\cabasi\images\manifest\icon-512x512.png"
     inkscape:export-xdpi="135.77901"
     inkscape:export-ydpi="135.77901"
     inkscape:connector-curvature="0" />
  <path
     style="fill:#f4511e;stroke:#f4511e;stroke-width:2.10723042;stroke-miterlimit:4;stroke-dasharray:none;stroke-opacity:1"
     d="m 480.01947,209.40997 q -1.5681,2.535 -4.31242,7.68184 -0.86201,2.38139 -3.05793,6.76008 -0.47039,0.69124 -1.25461,0.69124 0.0759,0 -7.60556,-2.68866 -7.60564,-2.76542 -12.5454,-2.76542 -14.42718,0 -14.42718,12.44456 0,6.9137 10.11472,12.06052 17.01461,8.68054 18.81801,9.98642 10.11469,7.91236 10.11469,21.35566 0,17.20732 -13.87825,27.11703 -12.46699,8.91092 -30.65776,8.91092 -8.46814,0 -9.09541,-1.84369 -0.31357,-2.91907 -1.41135,-8.52685 -0.62721,-2.30458 -1.9602,-6.91368 -0.2353,-0.6912 -0.2353,-1.30589 0,-1.07549 1.17612,-1.07549 1.88181,0 5.72384,0.38375 3.92043,0.38377 5.88064,0.38377 24.3066,0 24.3066,-15.36377 0,-7.5283 -9.80101,-13.05921 -17.87715,-9.98641 -18.26919,-10.37049 -9.87949,-7.83549 -9.87949,-21.04826 0,-14.28836 9.56583,-22.89208 9.33064,-8.29642 24.14976,-8.29642 6.27272,0 14.42724,1.99734 8.86015,2.22777 13.32946,5.37726 0.39172,0.30753 0.78426,0.99867 z"
     id="cabas"
     inkscape:export-filename="C:\Dev\cabasi\images\manifest\icon-512x512.png"
     inkscape:export-xdpi="135.77901"
     inkscape:export-ydpi="135.77901"
     inkscape:connector-curvature="0" />
  <path
     style="fill:#f4511e;stroke:#f4511e;stroke-width:2.10723042;stroke-miterlimit:4;stroke-dasharray:none;stroke-opacity:1"
     d="m 509.21886,308.27505 q 0,1.61327 -2.27383,1.61327 -1.41138,0 -4.31249,-0.23026 -2.90112,-0.23027 -4.3125,-0.23027 -1.48973,0 -4.39094,0.23027 -2.90102,0.23026 -4.3124,0.23026 -1.96013,0 -1.96013,-1.76684 0,-8.75733 0.78421,-26.34888 0.86298,-17.66824 0.86298,-26.50243 0,-8.52685 -0.86298,-25.58061 -0.78421,-17.13052 -0.78421,-25.65737 0,-1.9205 1.80328,-1.9205 1.48978,0 4.54773,0.23026 3.05793,0.23025 4.62614,0.23025 1.41137,0 4.23402,-0.23025 2.82274,-0.23026 4.23411,-0.23026 2.03861,0 2.03861,1.53641 0,8.60366 -0.6278,25.81103 -0.62684,17.20737 -0.62684,25.81104 0,8.83419 0.62684,26.50243 0.70557,17.66837 0.70557,26.50245 z"
     id="cabasi"
     inkscape:export-filename="C:\Dev\cabasi\images\manifest\icon-512x512.png"
     inkscape:export-xdpi="135.77901"
     inkscape:export-ydpi="135.77901"
     inkscape:connector-curvature="0" />
</svg>
